<?xml version='1.0' encoding='utf-8'?>
<svg xmlns="http://www.w3.org/2000/svg" width="100%" height="100%" viewBox="0 0 1350.000000 1350.000000" preserveAspectRatio="xMidYMid meet" role="img" aria-label="PixelCloud9 logo">
<defs><linearGradient id="pc9Gradient" x1="0%" y1="0%" x2="100%" y2="0%" gradientUnits="objectBoundingBox"><stop offset="0%" stop-color="#FF35C8" /><stop offset="50%" stop-color="#7A5CFF" /><stop offset="100%" stop-color="#00D1FF" /></linearGradient><filter id="pc9Glow" x="-30%" y="-30%" width="160%" height="160%"><feGaussianBlur stdDeviation="3" result="blur" /><feMerge><feMergeNode in="blur" /><feMergeNode in="SourceGraphic" /></feMerge></filter></defs><g transform="translate(0.000000,1350.000000) scale(0.100000,-0.100000)" fill="url(#pc9Gradient)" stroke="none" filter="url(#pc9Glow)"><path d="M8956 11153 c-4 -9 -2 -21 4 -27 7 -7 10 -2 10 17 0 31 -5 34 -14 10z" filter="url(#pc9Glow)" /><path d="M9070 11140 c0 -18 4 -29 10 -25 6 3 10 15 10 25 0 10 -4 22 -10 25 -6 4 -10 -7 -10 -25z" filter="url(#pc9Glow)" /><path d="M7376 10261 c-7 -10 -84 -23 -96 -16 -12 7 -271 9 -290 2 -20 -8 -97 -17 -138 -17 -17 1 -42 -5 -54 -11 -12 -7 -48 -12 -79 -13 -31 -1 -62 -6 -70 -13 -8 -7 -24 -10 -35 -7 -11 3 -69 -11 -128 -30 -64 -22 -117 -34 -131 -30 -26 6 -42 -11 -26 -30 8 -10 -3 -15 -51 -24 -34 -6 -65 -18 -70 -25 -13 -24 -87 -70 -102 -64 -9 4 -18 2 -21 -3 -8 -13 -94 -70 -105 -70 -5 0 -14 -9 -20 -20 -6 -11 -19 -20 -30 -20 -11 0 -24 -9 -30 -20 -6 -11 -16 -20 -23 -20 -19 0 -182 -150 -210 -194 -10 -14 -24 -26 -32 -26 -8 0 -15 -4 -15 -10 0 -12 -71 -78 -109 -101 -18 -11 -34 -33 -43 -60 -8 -23 -23 -47 -33 -53 -30 -17 -55 -49 -61 -78 -5 -21 -13 -28 -29 -28 -26 0 -35 -17 -35 -65 0 -23 -9 -45 -28 -67 -33 -39 -52 -80 -52 -113 0 -13 -7 -28 -15 -33 -9 -4 -19 -28 -23 -51 -8 -51 -51 -93 -75 -73 -10 9 -17 7 -30 -8 -21 -25 -47 -26 -53 -2 -6 21 -61 25 -290 25 -141 -1 -155 -3 -241 -32 -50 -17 -100 -31 -113 -31 -12 0 -35 -14 -51 -31 -27 -29 -33 -31 -75 -25 -41 5 -45 4 -54 -19 -5 -13 -26 -36 -47 -49 -21 -14 -55 -48 -76 -76 -21 -27 -43 -50 -50 -50 -6 0 -20 -14 -29 -30 -10 -18 -25 -30 -37 -30 -14 0 -23 -9 -27 -26 -4 -15 -26 -49 -50 -76 -24 -27 -44 -55 -44 -63 0 -7 -11 -27 -25 -43 -14 -17 -25 -37 -25 -45 0 -8 -7 -20 -15 -27 -9 -7 -13 -21 -10 -30 3 -9 -1 -23 -10 -30 -8 -7 -15 -21 -15 -31 0 -10 -4 -20 -9 -23 -4 -3 -11 -27 -15 -53 -11 -78 -29 -149 -48 -190 -6 -12 -8 -28 -5 -36 9 -24 -9 -39 -54 -42 -24 -2 -53 -6 -64 -10 -11 -4 -31 -11 -45 -15 -14 -5 -59 -14 -100 -21 -49 -7 -81 -18 -93 -30 -11 -11 -31 -19 -52 -19 -24 0 -44 -9 -67 -30 -18 -16 -42 -30 -54 -30 -12 0 -25 -7 -28 -15 -3 -9 -19 -21 -36 -27 -17 -5 -35 -19 -41 -29 -5 -10 -16 -19 -24 -19 -7 0 -22 -10 -32 -23 -10 -13 -31 -32 -48 -42 -16 -11 -33 -24 -37 -30 -4 -5 -21 -26 -37 -45 -17 -19 -53 -66 -81 -105 -27 -38 -54 -75 -59 -81 -4 -5 -16 -28 -26 -50 -10 -21 -24 -46 -31 -54 -7 -8 -25 -53 -39 -100 -15 -46 -33 -93 -40 -104 -7 -12 -15 -51 -18 -89 -2 -37 -10 -73 -16 -81 -8 -9 -10 -76 -7 -222 5 -250 10 -298 36 -359 13 -31 23 -76 25 -120 1 -22 12 -56 24 -75 11 -19 25 -46 31 -60 16 -37 18 -41 50 -95 17 -27 39 -68 50 -91 11 -22 33 -57 49 -78 17 -21 33 -46 36 -56 3 -11 15 -22 25 -25 11 -3 52 -43 91 -88 40 -45 80 -85 89 -89 10 -3 37 -25 61 -47 24 -22 49 -41 56 -41 6 0 32 -16 57 -35 25 -19 58 -37 73 -41 16 -4 39 -12 53 -19 116 -58 223 -91 325 -100 28 -2 66 -8 85 -12 36 -8 3211 -7 3685 1 143 2 278 4 300 3 49 -1 130 -2 735 0 1009 2 1039 3 1163 37 32 9 66 16 76 16 10 0 30 10 45 21 15 12 55 30 89 41 65 20 114 46 225 121 23 15 48 27 57 27 8 0 15 4 15 10 0 14 53 60 70 60 8 0 21 9 28 20 7 11 19 20 27 20 8 0 22 18 31 40 9 22 20 40 25 40 17 0 76 60 95 97 10 21 40 63 67 92 26 30 47 59 47 63 0 5 16 31 35 58 19 27 35 54 35 60 0 6 11 32 23 58 13 26 36 88 51 137 16 50 32 99 36 110 19 47 23 62 25 100 2 22 8 76 15 120 23 163 9 573 -22 645 -6 14 -15 43 -19 65 -19 98 -36 142 -62 168 -20 19 -28 36 -26 55 2 17 -6 40 -19 59 -12 17 -22 40 -22 52 0 11 -11 28 -25 37 -14 9 -28 28 -32 43 -7 32 -51 108 -67 119 -7 4 -36 44 -66 90 -30 45 -57 82 -62 82 -14 0 -79 63 -94 91 -8 16 -21 29 -28 29 -8 0 -26 16 -40 35 -15 19 -32 35 -38 35 -15 0 -157 93 -157 103 -1 4 -11 17 -22 28 -19 19 -25 20 -41 10 -21 -13 -31 -7 -81 41 -10 10 -24 18 -32 18 -8 0 -15 4 -15 8 0 13 -66 33 -84 26 -9 -4 -24 0 -34 8 -33 28 -107 52 -172 54 -101 3 -204 16 -217 26 -7 5 -17 7 -23 3 -6 -4 -22 -4 -36 -1 -19 5 -24 12 -22 34 1 15 -2 34 -7 42 -5 8 -13 40 -16 70 -14 109 -21 146 -35 177 -8 17 -14 42 -14 56 0 13 -15 53 -34 89 -23 44 -32 74 -29 92 3 16 1 26 -6 26 -6 0 -16 11 -21 25 -5 14 -14 25 -20 25 -5 0 -10 7 -10 15 0 8 5 15 10 15 17 0 11 22 -8 27 -11 2 -23 22 -31 50 -8 24 -22 52 -32 62 -10 9 -25 33 -34 54 -8 20 -20 37 -25 37 -5 0 -17 12 -27 26 -13 21 -14 30 -5 45 11 16 8 20 -22 33 -24 10 -37 24 -46 50 -6 20 -25 45 -41 57 -16 11 -29 26 -29 33 0 7 -9 21 -20 31 -11 10 -20 24 -20 31 0 18 -37 37 -45 24 -9 -15 -35 7 -35 29 0 23 -193 221 -214 221 -10 0 -36 18 -58 40 -23 22 -49 40 -58 40 -30 0 -91 30 -147 72 -30 23 -71 44 -91 47 -32 5 -37 10 -40 35 -3 28 -5 28 -53 24 -31 -3 -52 -1 -57 6 -4 6 -47 24 -97 39 -49 15 -105 33 -123 38 -49 16 -137 26 -240 28 -29 1 -32 4 -27 21 6 20 -9 28 -19 11z m114 -124 c138 -24 201 -38 237 -53 17 -8 42 -14 55 -14 12 0 32 -7 42 -15 11 -8 28 -15 37 -15 10 0 30 -6 46 -14 15 -8 46 -22 68 -32 22 -9 47 -21 55 -25 8 -5 38 -20 65 -34 82 -43 138 -76 176 -106 20 -16 40 -29 43 -29 3 0 14 -8 24 -17 10 -10 40 -36 68 -58 65 -53 199 -187 248 -250 22 -28 45 -54 51 -60 20 -19 72 -90 78 -107 4 -10 10 -18 16 -18 5 0 11 -8 15 -17 3 -10 15 -31 26 -48 11 -16 24 -39 30 -50 5 -11 14 -28 20 -37 18 -32 28 -52 65 -128 20 -41 42 -88 50 -103 8 -16 15 -36 15 -46 0 -9 7 -26 15 -37 8 -10 15 -31 15 -45 0 -14 7 -34 15 -45 8 -10 15 -36 15 -56 0 -21 6 -55 14 -75 8 -21 17 -78 21 -128 8 -118 10 -139 18 -152 4 -6 80 -12 182 -16 105 -4 184 -11 198 -19 12 -6 38 -15 57 -19 52 -11 135 -42 202 -76 14 -7 33 -13 42 -13 9 0 16 -4 16 -9 0 -5 12 -14 28 -20 15 -6 41 -20 57 -31 17 -11 37 -23 45 -27 8 -4 20 -11 25 -15 6 -5 42 -31 80 -60 89 -65 265 -242 310 -311 6 -8 26 -39 46 -69 20 -29 46 -71 58 -93 12 -22 26 -47 30 -55 5 -8 23 -46 40 -85 18 -38 39 -83 47 -98 8 -16 14 -36 14 -46 0 -9 7 -26 15 -37 8 -10 15 -29 15 -40 0 -12 6 -44 14 -70 44 -149 60 -369 45 -599 -9 -145 -37 -282 -77 -378 -7 -16 -12 -32 -12 -37 0 -5 -7 -21 -15 -37 -7 -15 -24 -48 -35 -73 -12 -25 -30 -58 -41 -75 -10 -16 -23 -39 -29 -50 -12 -24 -33 -58 -40 -65 -3 -3 -18 -24 -34 -48 -65 -95 -317 -334 -386 -365 -8 -4 -28 -16 -45 -26 -30 -19 -152 -80 -210 -105 -57 -25 -100 -38 -147 -46 -26 -5 -55 -13 -65 -18 -22 -12 -5629 -22 -5773 -11 -95 8 -216 28 -235 40 -5 4 -26 10 -45 14 -19 4 -41 11 -50 16 -8 4 -62 31 -120 59 -57 28 -107 54 -110 58 -3 4 -25 21 -50 37 -60 40 -231 205 -267 258 -15 23 -30 44 -33 47 -6 6 -60 87 -76 115 -20 34 -51 97 -73 150 -12 28 -26 58 -31 67 -6 10 -10 25 -10 34 0 9 -6 30 -14 47 -32 74 -41 161 -40 397 1 232 10 316 42 393 7 16 12 34 12 42 0 7 6 26 14 42 7 15 20 44 28 63 37 87 57 121 124 210 77 102 172 197 256 256 29 21 55 40 58 43 7 8 126 65 175 83 106 40 154 49 275 51 69 2 131 6 138 11 8 5 12 40 12 115 0 60 5 112 10 117 6 6 15 33 19 60 14 80 78 239 109 272 6 7 12 17 12 22 0 18 92 142 152 206 55 58 171 153 233 191 58 35 161 80 205 88 19 4 41 12 49 19 9 7 80 11 215 11 175 0 204 -2 226 -17 13 -10 36 -18 50 -18 14 0 34 -7 44 -15 11 -8 27 -15 37 -15 9 0 22 -7 29 -15 19 -22 48 -18 55 8 3 12 11 40 16 62 12 42 32 99 55 150 7 17 15 37 18 45 3 8 10 22 14 30 14 23 29 52 52 94 26 49 122 194 147 223 10 11 25 32 33 44 13 21 152 169 220 236 14 14 61 52 105 86 44 33 84 67 88 74 4 7 12 13 17 13 5 0 37 19 72 42 78 53 86 58 178 102 41 21 88 43 103 51 16 8 35 15 44 15 8 0 27 6 41 14 47 24 96 43 129 50 18 4 35 12 38 17 4 5 22 9 40 9 19 0 54 6 77 14 24 8 73 17 110 20 37 4 78 11 90 16 38 15 480 6 588 -13z m480 -52 c0 -8 -4 -15 -10 -15 -5 0 -10 7 -10 15 0 8 5 15 10 15 6 0 10 -7 10 -15z" filter="url(#pc9Glow)" /><path d="M7047 9994 c-1 -1 -54 -7 -116 -13 -63 -6 -119 -15 -125 -21 -5 -5 -26 -10 -45 -10 -20 0 -49 -7 -65 -15 -15 -8 -40 -15 -55 -15 -14 0 -39 -7 -55 -15 -15 -8 -36 -15 -45 -15 -10 0 -26 -7 -37 -15 -10 -8 -27 -15 -37 -15 -17 0 -50 -14 -97 -41 -8 -5 -22 -12 -30 -15 -50 -19 -177 -89 -200 -109 -9 -8 -20 -15 -24 -15 -4 0 -27 -15 -50 -32 -24 -18 -54 -40 -66 -48 -153 -105 -407 -399 -494 -571 -20 -41 -41 -81 -46 -89 -4 -8 -16 -35 -25 -60 -10 -25 -24 -59 -31 -77 -8 -17 -14 -38 -14 -46 0 -8 -7 -28 -15 -43 -8 -16 -15 -38 -15 -49 -1 -11 -7 -31 -15 -45 -8 -14 -14 -39 -15 -55 0 -34 -24 -75 -44 -75 -7 0 -40 18 -72 40 -33 22 -66 40 -74 40 -8 0 -24 7 -34 15 -11 8 -29 15 -41 15 -12 0 -26 5 -32 11 -6 6 -35 14 -64 19 -30 5 -86 14 -126 21 -55 9 -90 10 -145 1 -111 -16 -174 -29 -194 -40 -11 -5 -41 -20 -69 -33 -165 -76 -326 -240 -405 -414 -12 -27 -29 -62 -36 -77 -8 -14 -14 -37 -14 -50 0 -13 -4 -28 -9 -34 -10 -9 -24 -79 -41 -194 -5 -30 -9 -101 -9 -158 -1 -96 -2 -103 -23 -111 -12 -4 -40 -4 -62 0 -111 22 -328 4 -421 -35 -54 -23 -110 -48 -125 -57 -8 -5 -22 -12 -30 -16 -30 -13 -146 -107 -193 -157 -53 -56 -146 -185 -163 -226 -3 -8 -12 -28 -19 -45 -7 -16 -20 -47 -29 -68 -9 -21 -16 -48 -16 -60 0 -13 -5 -28 -11 -34 -5 -5 -14 -37 -19 -69 -6 -32 -14 -79 -19 -104 -13 -58 -13 -232 0 -290 5 -25 14 -74 19 -110 6 -35 15 -69 20 -74 6 -6 10 -21 10 -34 0 -13 6 -36 14 -50 8 -15 29 -58 47 -97 18 -38 40 -81 50 -95 9 -14 36 -54 59 -90 48 -73 191 -224 260 -275 77 -56 205 -122 282 -144 40 -12 88 -26 105 -32 18 -6 65 -15 105 -21 92 -14 3238 -25 4683 -17 993 6 1124 10 1159 38 6 5 28 12 50 15 21 4 46 11 55 16 9 4 40 19 69 31 28 13 52 27 52 31 0 5 9 8 21 8 12 0 38 14 59 30 21 17 41 30 45 30 13 0 120 87 186 151 74 73 139 151 139 168 0 6 5 11 10 11 6 0 15 10 21 23 15 33 35 67 48 80 6 6 11 19 11 29 0 10 4 18 10 18 5 0 13 12 16 27 4 15 13 34 21 41 7 7 13 22 13 32 0 10 4 21 9 24 8 5 36 86 64 186 22 79 41 301 33 400 -10 142 -22 243 -34 280 -6 19 -18 64 -27 100 -9 36 -23 78 -31 93 -8 16 -14 37 -14 47 0 9 -7 23 -15 30 -8 7 -15 20 -15 29 0 9 -6 25 -14 36 -7 11 -16 32 -20 48 -3 15 -11 27 -16 27 -6 0 -10 5 -10 11 0 13 -97 176 -108 181 -4 2 -25 26 -47 53 -75 95 -110 128 -225 214 -137 102 -128 96 -254 161 -54 27 -108 50 -120 50 -11 0 -30 7 -40 15 -11 8 -34 15 -52 15 -17 0 -48 7 -69 15 -29 13 -76 16 -236 14 -145 -1 -203 2 -214 11 -12 10 -15 39 -15 142 0 92 -4 139 -15 165 -8 19 -15 57 -15 82 0 26 -7 56 -15 67 -8 10 -15 33 -15 49 0 17 -7 41 -15 55 -8 14 -14 35 -15 46 0 12 -7 27 -15 34 -8 7 -15 23 -15 35 0 12 -7 28 -15 35 -8 7 -15 23 -15 36 0 12 -4 25 -9 28 -5 3 -28 43 -50 88 -23 46 -51 97 -61 113 -11 17 -24 40 -30 53 -5 12 -14 22 -20 22 -5 0 -10 6 -10 13 0 7 -13 27 -30 45 -16 18 -30 35 -30 38 0 19 -208 239 -269 284 -18 14 -49 40 -70 57 -20 18 -39 33 -43 33 -4 0 -35 19 -70 43 -35 24 -83 53 -108 66 -25 12 -52 26 -60 30 -8 5 -33 17 -55 26 -22 10 -53 24 -68 31 -16 8 -38 14 -50 14 -12 1 -33 7 -47 15 -14 8 -35 14 -46 15 -12 0 -35 7 -50 15 -16 8 -48 15 -72 15 -24 0 -53 5 -65 11 -25 14 -198 30 -345 33 -56 2 -103 1 -105 0z m96 -64 c98 5 275 -6 290 -18 7 -6 39 -12 72 -15 70 -5 267 -55 277 -70 3 -6 36 -18 73 -28 36 -9 74 -24 84 -33 10 -9 21 -16 24 -16 12 0 112 -64 120 -77 4 -7 15 -13 23 -13 8 0 17 -7 21 -16 3 -9 25 -24 49 -34 23 -10 50 -30 60 -44 9 -14 20 -26 26 -26 20 0 74 -55 90 -92 8 -16 21 -28 32 -28 21 0 61 -39 71 -70 3 -11 13 -20 22 -20 9 0 13 -6 10 -14 -4 -9 5 -21 19 -31 14 -9 32 -31 39 -48 7 -18 23 -41 34 -51 11 -10 25 -34 31 -52 7 -19 20 -39 31 -44 10 -6 19 -17 19 -24 0 -7 9 -21 19 -30 11 -10 22 -30 26 -44 9 -39 29 -82 37 -82 8 0 48 -87 48 -106 0 -7 9 -28 19 -46 11 -18 24 -60 31 -93 6 -33 17 -69 23 -80 12 -22 34 -186 46 -332 6 -79 10 -95 31 -116 40 -38 74 -44 248 -40 135 3 166 1 184 -12 13 -8 41 -15 63 -15 22 0 67 -12 100 -26 33 -14 87 -35 120 -46 33 -11 67 -28 76 -38 8 -10 42 -30 74 -46 33 -16 76 -46 96 -66 20 -21 44 -38 53 -38 9 0 27 -18 41 -40 14 -22 29 -40 34 -40 19 0 102 -93 108 -121 4 -22 10 -28 23 -24 26 8 45 -23 45 -74 0 -43 2 -46 27 -46 23 1 28 -5 39 -45 7 -25 22 -57 34 -71 35 -42 72 -129 90 -209 9 -41 20 -79 24 -85 15 -19 33 -105 28 -127 -4 -13 -1 -38 5 -56 10 -27 10 -35 -2 -43 -13 -8 -13 -10 -1 -18 19 -12 26 -362 8 -373 -7 -4 -13 -35 -13 -70 -1 -46 -9 -76 -27 -110 -13 -25 -35 -80 -48 -122 -17 -55 -30 -78 -48 -88 -25 -14 -63 -89 -59 -117 2 -10 -3 -15 -14 -15 -11 1 -18 -5 -18 -16 0 -10 -7 -23 -15 -30 -8 -7 -15 -18 -15 -24 0 -6 -25 -35 -55 -64 -30 -29 -55 -58 -55 -63 0 -5 -14 -18 -32 -29 -17 -10 -52 -39 -77 -63 -53 -50 -121 -94 -121 -78 0 6 -7 11 -15 11 -8 0 -15 -6 -15 -14 0 -19 -39 -46 -66 -46 -12 0 -32 -8 -45 -19 -13 -10 -42 -21 -64 -25 -42 -7 -97 -26 -105 -36 -8 -9 -222 -30 -246 -24 -12 3 -31 1 -42 -5 -12 -6 -23 -8 -26 -3 -2 4 -66 7 -140 6 -75 -1 -138 2 -141 6 -2 4 -24 6 -47 4 -24 -2 -108 -3 -188 -3 -242 3 -269 3 -445 1 -93 -1 -210 -1 -260 1 -49 2 -112 -1 -139 -5 -27 -4 -54 -4 -60 1 -15 11 -299 12 -401 1 -56 -6 -104 -4 -160 5 -44 7 -84 10 -89 7 -5 -2 -95 -4 -200 -3 -105 1 -297 2 -426 2 -142 1 -244 5 -257 11 -12 6 -30 7 -40 3 -19 -9 -922 -13 -920 -5 1 3 -3 5 -8 5 -5 0 -9 -3 -7 -8 1 -4 -100 -5 -225 -1 -126 3 -428 5 -673 5 -552 0 -739 13 -791 56 -8 7 -32 13 -52 13 -23 0 -70 17 -129 47 -108 54 -128 69 -128 96 0 13 -5 17 -15 13 -21 -8 -176 147 -205 205 -13 24 -34 57 -47 73 -35 42 -87 157 -85 188 2 18 -4 28 -16 32 -15 5 -23 26 -36 92 -9 47 -14 90 -10 96 3 5 -4 24 -16 40 -18 24 -21 39 -17 72 3 22 2 68 -3 101 -6 44 -4 79 7 130 24 114 46 186 63 209 10 11 19 40 22 62 6 40 63 141 110 194 13 14 35 40 49 57 14 17 48 47 75 68 27 20 63 52 80 71 25 27 40 34 68 34 26 0 39 5 43 18 9 23 44 51 65 52 9 0 43 6 75 14 32 8 131 17 220 19 l162 5 46 44 46 44 5 135 c3 74 12 154 20 179 25 79 37 134 35 157 -1 11 3 24 8 28 6 3 11 14 11 23 0 9 13 37 29 60 16 24 27 52 24 61 -3 14 3 20 27 24 26 6 30 10 25 26 -9 31 21 69 58 73 30 3 32 6 29 36 -2 24 1 34 15 39 10 4 41 25 68 48 61 51 86 65 119 65 14 0 29 7 34 16 5 9 29 20 53 26 24 5 67 14 94 19 64 14 241 7 257 -9 7 -7 20 -12 30 -12 10 0 26 -4 36 -9 9 -6 33 -12 53 -16 20 -3 44 -14 54 -25 10 -11 30 -20 44 -20 14 0 51 -15 82 -34 53 -32 57 -33 85 -18 72 36 144 142 144 211 0 22 6 44 15 51 8 7 15 21 15 31 0 11 5 19 10 19 6 0 10 8 10 18 0 9 7 26 15 36 8 11 15 32 15 47 0 40 26 106 60 152 16 23 30 47 30 54 0 18 48 93 59 93 6 0 13 9 16 21 4 11 22 27 41 35 22 9 34 21 34 33 0 10 6 21 13 24 8 3 23 25 35 49 24 51 83 108 113 108 11 0 23 10 28 23 14 35 117 137 140 137 11 0 34 14 51 30 17 17 37 30 44 30 8 0 19 7 26 15 7 8 24 21 39 28 56 30 128 71 161 92 19 13 60 28 92 35 34 7 59 17 62 27 4 11 15 14 33 10 16 -3 41 2 58 11 16 8 48 19 70 23 22 4 69 15 105 23 36 9 103 18 150 22 46 3 87 8 90 10 3 3 18 3 35 -1 16 -3 38 -5 48 -5z" filter="url(#pc9Glow)" /><path d="M6780 8563 c-13 -3 -32 -11 -42 -17 -11 -8 -43 -11 -90 -9 -53 3 -76 0 -83 -10 -15 -21 -46 -29 -61 -16 -11 9 -21 6 -46 -13 -30 -22 -74 -41 -103 -43 -15 -1 -56 -34 -143 -113 -40 -37 -89 -76 -110 -88 -20 -11 -38 -29 -40 -40 -1 -10 -30 -48 -62 -84 -33 -35 -60 -71 -60 -79 0 -7 -11 -37 -24 -65 -14 -28 -32 -73 -40 -99 -9 -26 -26 -61 -38 -77 -19 -26 -21 -44 -24 -167 -1 -76 3 -160 8 -188 6 -27 12 -61 13 -75 3 -37 15 -70 26 -70 5 0 9 -18 9 -40 0 -27 5 -43 15 -46 16 -6 75 -124 75 -149 0 -9 10 -19 23 -24 32 -13 62 -44 77 -82 16 -37 47 -68 70 -69 8 0 24 -15 35 -31 11 -17 31 -37 45 -44 74 -37 96 -50 103 -62 4 -7 16 -13 26 -13 11 0 21 -7 24 -14 3 -8 23 -18 44 -21 37 -7 89 -25 127 -46 13 -8 21 -8 26 0 5 8 34 9 101 4 l94 -8 -3 -34 c-1 -21 3 -38 13 -45 14 -10 14 -14 0 -44 -9 -17 -22 -35 -29 -39 -17 -10 -82 -104 -90 -130 -4 -12 -18 -32 -32 -47 -14 -14 -23 -30 -19 -36 7 -12 -32 -80 -46 -80 -5 0 -15 -15 -22 -32 -8 -18 -24 -42 -36 -52 -11 -11 -21 -25 -21 -32 0 -6 -11 -22 -25 -35 -14 -14 -25 -35 -25 -51 0 -26 -31 -90 -58 -117 -8 -8 -11 -22 -7 -35 4 -12 9 -34 12 -51 3 -16 18 -43 34 -60 l28 -30 151 -3 c121 -2 162 0 210 15 33 9 60 20 60 24 0 3 18 24 40 47 22 22 40 47 40 56 0 9 16 32 35 52 19 19 35 44 35 55 0 10 9 24 20 31 11 7 20 21 20 30 0 10 8 26 18 36 26 26 54 73 48 79 -10 11 29 64 51 69 16 4 23 14 23 29 0 12 9 34 20 48 11 14 20 32 20 41 0 9 7 19 15 23 9 3 29 32 45 64 17 32 43 68 60 81 20 15 30 30 30 49 0 20 6 28 25 33 17 4 25 13 25 28 0 11 11 36 25 54 14 18 25 40 25 49 0 8 7 18 15 21 8 4 15 14 15 24 0 11 18 39 40 64 21 26 44 62 49 82 5 20 21 46 35 59 18 16 26 35 26 56 0 18 7 40 15 49 9 10 25 42 36 71 12 30 32 83 46 119 18 48 29 107 40 225 8 88 15 167 15 175 -1 22 -22 112 -32 135 -5 11 -11 34 -13 50 -21 128 -87 267 -156 326 -28 24 -51 49 -51 56 0 12 -109 113 -170 157 -19 14 -53 35 -75 46 -22 11 -49 27 -59 35 -11 8 -27 15 -37 15 -9 0 -27 9 -41 20 -17 13 -28 16 -35 9 -7 -7 -17 -7 -29 -1 -37 19 -91 32 -130 32 -34 0 -97 13 -154 32 -8 3 -26 3 -40 1z m229 -129 c31 -8 70 -20 86 -26 17 -6 42 -13 57 -15 15 -3 33 -11 39 -19 6 -8 20 -14 30 -14 10 0 20 -4 23 -9 3 -5 25 -19 48 -31 23 -12 47 -27 53 -34 5 -7 36 -34 67 -60 69 -57 155 -163 186 -228 13 -26 27 -50 33 -53 5 -4 9 -16 9 -28 0 -12 7 -31 15 -41 8 -11 15 -30 15 -43 0 -13 7 -37 15 -54 13 -24 15 -62 12 -212 -4 -177 -16 -263 -45 -314 -6 -12 -12 -28 -12 -36 0 -17 -115 -245 -135 -267 -8 -9 -15 -24 -15 -32 0 -9 -7 -21 -15 -28 -8 -7 -15 -17 -15 -22 0 -6 -13 -27 -30 -48 -16 -21 -30 -45 -30 -53 0 -9 -6 -20 -13 -24 -8 -4 -17 -15 -21 -23 -11 -23 -29 -52 -53 -86 -12 -17 -27 -42 -33 -55 -15 -35 -33 -63 -47 -72 -7 -4 -13 -13 -13 -19 0 -5 -13 -29 -28 -52 -15 -22 -31 -48 -35 -56 -4 -8 -16 -28 -27 -45 -11 -16 -23 -37 -27 -45 -4 -8 -25 -41 -48 -75 -23 -33 -44 -67 -48 -75 -4 -8 -16 -28 -27 -45 -11 -16 -24 -39 -30 -50 -6 -11 -19 -33 -30 -50 -11 -16 -24 -39 -30 -50 -6 -11 -19 -33 -30 -50 -11 -16 -23 -37 -26 -45 -4 -8 -16 -25 -27 -37 -19 -21 -29 -23 -146 -24 -69 0 -151 -4 -182 -8 -31 -4 -62 -5 -68 -3 -18 6 -13 47 9 67 11 10 20 24 20 32 0 7 4 13 8 13 5 0 14 10 21 23 6 12 20 36 31 52 11 17 24 39 30 50 6 11 19 34 30 50 11 17 24 39 30 50 16 31 31 55 76 120 22 34 43 67 48 75 9 20 24 43 71 115 56 84 64 98 71 118 3 9 10 17 15 17 5 0 14 10 19 23 19 42 75 122 122 172 52 54 23 74 -52 36 -57 -29 -215 -46 -298 -33 -39 7 -87 12 -106 12 -19 0 -37 4 -41 9 -3 5 -20 13 -38 16 -17 4 -43 13 -57 20 -14 7 -43 21 -65 31 -55 26 -141 92 -195 150 -59 64 -110 129 -110 142 0 5 -6 14 -13 20 -15 13 -70 122 -90 182 -42 123 -40 380 3 500 7 19 15 40 16 45 2 6 8 17 13 25 5 8 12 22 15 30 4 8 15 29 26 45 11 17 23 37 27 45 13 28 91 125 135 166 75 71 206 164 231 164 8 0 20 7 27 15 7 8 21 15 31 15 10 0 33 6 51 14 103 45 375 62 487 30z" filter="url(#pc9Glow)" /><path d="M6775 8109 c-22 -5 -62 -13 -90 -18 -47 -8 -78 -20 -150 -58 -38 -21 -142 -124 -155 -155 -5 -12 -14 -30 -19 -38 -62 -104 -89 -277 -56 -357 8 -19 15 -45 15 -57 0 -11 7 -30 15 -40 8 -11 15 -26 15 -33 0 -21 74 -113 121 -153 23 -19 49 -42 58 -50 16 -15 57 -36 121 -60 54 -21 261 -25 299 -6 16 9 41 16 54 16 14 0 30 7 37 15 7 8 17 15 22 15 10 0 79 51 108 80 23 23 76 93 83 110 4 8 11 22 15 30 44 75 47 93 46 227 -1 129 -9 169 -45 233 -4 8 -17 32 -28 52 -24 44 -139 168 -155 168 -7 0 -17 5 -24 12 -19 19 -84 40 -227 72 -11 2 -38 0 -60 -5z m-31 -115 c5 -12 10 -13 19 -6 27 23 205 13 242 -13 15 -11 37 -27 50 -35 59 -41 105 -115 105 -170 0 -35 19 -50 27 -21 4 16 9 19 18 11 10 -8 13 -50 12 -168 -2 -153 -3 -157 -25 -167 -14 -6 -26 -24 -33 -49 -16 -60 -76 -125 -121 -132 -28 -5 -38 -12 -40 -28 -3 -18 -10 -21 -48 -21 -31 0 -55 -7 -77 -23 -34 -24 -59 -21 -68 9 -7 20 -30 26 -39 10 -12 -19 -83 -2 -143 34 -34 20 -67 43 -73 50 -6 8 -18 11 -26 8 -10 -4 -14 2 -14 20 0 19 -7 28 -30 36 -22 7 -30 16 -30 33 0 13 -10 39 -22 58 -19 31 -22 51 -24 160 -2 114 0 130 22 178 14 28 29 52 35 52 5 0 14 11 19 25 5 14 17 28 26 32 8 3 20 16 25 29 5 16 16 24 32 24 14 0 35 13 50 30 15 16 39 32 54 36 16 3 33 7 38 9 22 7 33 4 39 -11z" filter="url(#pc9Glow)" /><path d="M4377 8446 c-6 -15 1 -26 15 -26 11 0 10 27 -1 34 -5 3 -11 0 -14 -8z" filter="url(#pc9Glow)" /><path d="M8412 7260 c-17 -29 -16 -30 28 -30 45 0 49 8 20 33 -26 22 -32 21 -48 -3z" filter="url(#pc9Glow)" /><path d="M8350 7196 c0 -8 3 -22 6 -31 5 -13 8 -14 15 -3 14 21 10 48 -6 48 -8 0 -15 -6 -15 -14z" filter="url(#pc9Glow)" /><path d="M8497 7203 c-10 -10 -8 -51 3 -58 13 -8 25 44 13 56 -5 5 -12 6 -16 2z" filter="url(#pc9Glow)" /><path d="M8410 7100 c0 -5 9 -10 19 -10 11 0 23 5 26 10 4 6 -5 10 -19 10 -14 0 -26 -4 -26 -10z" filter="url(#pc9Glow)" /><path d="M2315 4630 c-16 -5 -37 -7 -46 -5 -9 3 -28 1 -41 -4 -34 -13 -141 -108 -150 -133 -12 -32 -16 -855 -4 -918 12 -70 37 -111 84 -144 57 -39 96 -49 160 -41 53 6 61 11 113 64 58 59 69 86 69 174 0 67 55 116 130 115 14 0 47 9 73 21 27 12 59 21 72 21 12 0 25 7 29 15 3 8 11 15 17 15 7 0 20 6 28 14 20 18 89 56 101 56 5 0 10 -80 12 -178 3 -178 3 -179 31 -215 51 -67 86 -86 168 -93 69 -6 78 -4 131 25 60 32 92 39 104 20 3 -6 27 -20 53 -31 66 -30 167 -28 218 3 49 30 123 98 123 113 0 14 54 66 68 66 6 0 21 -15 33 -32 33 -48 110 -128 140 -143 14 -8 63 -17 110 -21 80 -6 88 -5 158 25 40 17 76 31 80 31 4 0 22 -15 40 -32 30 -29 41 -33 110 -39 42 -4 87 -2 99 2 13 5 76 6 140 3 231 -13 233 -12 356 65 21 13 27 12 72 -19 l49 -34 204 -7 c113 -4 240 -4 282 1 74 7 82 10 139 56 33 27 60 52 60 57 0 4 16 7 35 7 24 0 45 -9 67 -29 18 -16 76 -44 128 -62 90 -32 102 -34 215 -32 113 1 125 4 200 36 44 19 98 46 119 61 21 14 42 26 46 26 4 0 24 -16 45 -35 20 -20 53 -48 72 -62 l36 -27 261 -1 c189 0 269 3 291 13 17 7 52 39 79 72 26 33 55 60 64 60 10 0 37 -12 62 -26 187 -109 261 -134 395 -134 50 0 134 18 150 31 5 5 19 9 30 9 24 0 106 38 158 73 45 31 117 92 117 100 0 4 21 27 46 52 47 47 69 52 81 18 3 -10 15 -28 26 -40 11 -13 16 -23 11 -23 -16 0 141 -142 173 -156 17 -7 34 -18 38 -24 3 -5 16 -10 28 -10 12 0 41 -7 65 -15 24 -9 48 -13 53 -9 6 3 45 6 87 6 123 -1 218 37 317 128 17 15 41 33 54 40 22 11 27 10 43 -11 73 -97 85 -109 134 -131 35 -15 72 -18 225 -20 181 -3 185 -2 254 25 39 16 83 34 100 40 59 23 132 80 202 160 73 83 80 93 127 201 24 55 27 58 44 44 9 -9 27 -19 38 -22 12 -4 40 -20 63 -36 53 -39 54 -68 1 -167 -22 -42 -40 -80 -40 -85 0 -24 43 -99 63 -109 12 -6 30 -21 39 -33 14 -17 30 -21 96 -24 l79 -4 90 75 c87 73 110 102 211 263 18 28 32 55 32 61 0 5 9 18 20 28 11 10 20 22 20 26 0 5 14 37 30 71 17 34 33 80 37 101 3 20 10 40 14 43 12 7 11 230 0 252 -5 9 -15 32 -22 51 -7 19 -24 46 -38 61 -14 15 -44 50 -67 76 -22 27 -54 56 -70 64 -16 8 -36 20 -44 26 -65 53 -228 69 -351 35 -88 -24 -132 -57 -267 -203 -42 -46 -54 -44 -123 22 -35 33 -67 60 -71 60 -5 0 -16 8 -26 18 -20 20 -120 66 -189 87 -86 26 -301 38 -413 23 -48 -7 -78 -18 -116 -44 -28 -19 -53 -34 -56 -34 -3 0 -21 13 -41 29 -27 21 -56 31 -112 40 -70 12 -79 11 -118 -8 -45 -22 -90 -72 -111 -124 -10 -23 -14 -99 -15 -277 -2 -276 -5 -329 -21 -359 -15 -29 -70 -28 -96 0 -18 19 -19 44 -24 323 -5 289 -6 302 -27 337 -52 82 -85 106 -167 115 -65 8 -107 -6 -150 -48 -15 -15 -32 -28 -35 -28 -9 0 -41 -66 -41 -84 0 -14 -41 -56 -55 -56 -4 0 -27 17 -50 38 -93 83 -123 105 -193 138 -40 19 -85 34 -100 34 -15 1 -38 7 -52 15 -14 8 -43 14 -66 15 -47 0 -219 -25 -249 -36 -57 -22 -200 -122 -225 -158 -8 -11 -27 -32 -42 -44 -16 -13 -28 -29 -28 -35 0 -6 -6 -18 -14 -26 -18 -22 -70 -127 -86 -176 -8 -24 -14 -98 -15 -188 -2 -99 -7 -152 -15 -162 -9 -11 -28 -14 -81 -10 -135 9 -130 -4 -135 352 -4 297 -5 298 -30 348 -47 91 -105 121 -211 110 -59 -6 -69 -11 -119 -56 -68 -62 -96 -70 -132 -37 -39 36 -135 88 -163 88 -13 0 -46 7 -73 15 -27 8 -66 15 -87 15 -68 0 -213 -35 -240 -57 -9 -8 -33 -18 -53 -24 -23 -6 -62 -35 -108 -79 -39 -39 -74 -70 -78 -70 -3 0 -11 -12 -18 -27 -6 -16 -25 -48 -41 -73 -16 -25 -30 -53 -30 -64 -1 -10 -11 -35 -23 -55 -21 -33 -23 -47 -23 -197 0 -193 -1 -194 -87 -192 -52 1 -62 5 -84 31 -18 21 -24 41 -25 75 -5 388 -11 521 -24 562 -21 64 -110 151 -151 149 -16 -1 -45 1 -65 5 -23 5 -39 4 -43 -3 -4 -6 -16 -11 -27 -11 -10 0 -36 -16 -58 -35 -21 -19 -43 -35 -48 -35 -6 0 -41 21 -79 46 l-69 45 -265 -2 -265 -3 -43 -33 c-49 -37 -88 -42 -123 -15 -32 25 -114 52 -157 52 -51 0 -157 -63 -222 -132 -31 -32 -59 -58 -63 -58 -4 0 -35 27 -70 61 -34 33 -75 68 -92 77 -16 10 -41 25 -54 35 -26 19 -69 22 -115 7 -17 -5 -43 -12 -58 -15 -14 -3 -40 -16 -56 -30 -39 -33 -69 -32 -113 4 -49 41 -102 53 -161 38 -26 -7 -50 -16 -54 -20 -4 -4 -15 -7 -24 -7 -10 0 -36 -24 -59 -54 -56 -75 -69 -77 -135 -21 -44 37 -75 53 -158 80 -88 29 -122 34 -233 39 -73 3 -143 1 -160 -4z m1345 -125 c8 -8 24 -31 35 -52 11 -21 31 -56 45 -78 43 -69 49 -80 56 -95 30 -69 47 -100 54 -100 17 0 40 12 40 22 0 10 43 98 83 168 14 25 36 64 48 88 13 24 28 47 33 51 6 5 60 11 121 12 129 5 138 -4 82 -73 -38 -48 -106 -151 -123 -188 -4 -8 -13 -22 -19 -30 -7 -8 -21 -31 -32 -50 -37 -67 -86 -140 -94 -140 -22 0 -5 -46 34 -98 24 -31 47 -64 50 -72 4 -8 16 -28 27 -45 11 -16 23 -37 27 -45 3 -8 19 -31 35 -51 15 -20 28 -40 28 -43 0 -10 91 -141 107 -153 9 -7 13 -19 10 -27 -5 -13 -26 -14 -121 -11 -63 2 -120 6 -126 10 -6 4 -16 17 -21 28 -5 12 -18 36 -29 52 -11 17 -23 37 -27 45 -3 8 -18 33 -32 55 -14 22 -34 58 -44 80 -10 22 -22 47 -26 55 -10 19 -51 26 -51 9 0 -19 -45 -106 -118 -224 l-67 -109 -117 -2 c-133 -3 -141 2 -88 59 16 18 30 35 30 39 0 4 19 35 43 70 47 71 50 77 103 163 21 33 57 90 82 128 41 61 43 69 30 85 -19 21 -108 152 -108 158 0 2 -20 33 -45 70 -25 36 -45 67 -45 70 0 2 -25 40 -55 84 -57 83 -63 96 -44 102 28 9 215 -5 229 -17z m7415 -3 c86 -35 169 -118 209 -208 14 -32 17 -60 14 -140 -4 -96 -11 -125 -50 -209 -21 -43 -29 -58 -70 -123 -16 -24 -28 -46 -28 -49 0 -3 -12 -22 -27 -42 -16 -20 -32 -43 -38 -52 -5 -9 -35 -55 -67 -101 l-56 -84 -106 -1 c-83 -1 -106 2 -106 12 0 14 95 141 205 275 82 99 81 98 70 109 -7 6 -24 3 -50 -9 -117 -56 -272 8 -346 143 -21 37 -24 56 -24 157 l0 115 36 56 c61 93 143 153 234 169 57 10 153 1 200 -18z m-8426 2 c65 -19 69 -21 96 -37 56 -33 86 -62 122 -114 l38 -58 0 -120 c0 -112 -2 -123 -26 -160 -42 -63 -76 -95 -137 -128 -56 -30 -61 -30 -207 -32 l-150 -2 0 -179 0 -179 -105 0 c-94 0 -105 2 -104 18 0 9 1 240 2 512 l2 495 207 0 c161 0 218 -4 262 -16z m634 -497 c2 -444 0 -508 -13 -511 -8 -2 -55 -3 -103 -2 l-89 1 -1 513 -2 513 103 -3 103 -3 2 -508z m1777 419 c0 -52 -3 -97 -7 -99 -5 -3 -98 -2 -208 2 -110 4 -201 7 -203 6 -1 -1 -3 -54 -4 -116 l-1 -114 184 0 184 0 0 -90 0 -90 -182 1 c-101 0 -183 -3 -184 -8 0 -4 0 -59 -1 -120 l0 -113 206 -1 c113 0 208 -3 212 -7 5 -5 9 -133 5 -174 -1 -5 -142 -7 -313 -6 l-313 1 -3 511 -2 511 315 0 315 0 0 -94z m377 -38 c-4 -73 -7 -261 -8 -418 l-1 -285 196 -1 c108 0 199 -3 202 -7 11 -11 10 -177 -1 -178 -87 -5 -589 2 -594 8 -3 4 -5 234 -3 511 l2 502 107 0 106 0 -6 -132z m1070 116 c83 -37 108 -50 137 -74 52 -42 96 -88 96 -97 0 -5 -20 -24 -45 -42 -25 -18 -53 -44 -61 -57 -23 -35 -40 -30 -96 26 -27 28 -57 50 -66 50 -9 0 -26 7 -36 15 -27 20 -97 19 -159 -2 -62 -22 -144 -98 -176 -165 -33 -70 -35 -224 -3 -290 81 -165 247 -233 389 -158 33 18 68 45 82 65 13 19 28 35 34 35 14 0 137 -125 137 -139 0 -24 -94 -99 -181 -143 -63 -32 -66 -33 -200 -33 -116 0 -140 3 -156 18 -11 9 -25 17 -32 17 -7 0 -33 14 -58 30 -24 17 -46 30 -48 30 -19 0 -121 123 -145 175 -41 91 -49 131 -50 247 0 119 1 124 51 233 46 102 172 217 279 256 64 23 256 25 307 3z m563 4 c0 -7 0 -197 0 -421 l0 -409 189 3 c104 2 193 1 197 -3 3 -4 7 -46 8 -94 l1 -87 -300 0 -300 1 -3 511 -2 511 105 0 c77 0 105 -3 105 -12z m1130 -7 c19 -8 42 -17 50 -22 8 -4 33 -18 55 -29 43 -23 161 -139 176 -174 5 -11 13 -28 18 -36 38 -63 46 -107 46 -240 0 -114 -3 -143 -19 -176 -11 -21 -27 -55 -35 -74 -21 -45 -156 -180 -201 -201 -19 -8 -51 -23 -70 -32 -61 -27 -190 -41 -267 -28 -38 7 -81 18 -98 26 -16 7 -37 16 -45 19 -22 9 -50 27 -97 64 -43 33 -133 142 -133 160 0 6 -6 23 -14 39 -30 62 -40 102 -44 182 -7 149 49 281 170 403 42 43 83 78 90 78 8 0 19 5 26 12 6 6 33 19 59 29 59 21 277 21 333 0z m700 -345 c0 -361 0 -365 23 -399 38 -59 76 -77 162 -77 85 0 119 17 157 78 19 31 20 47 19 397 l-1 365 105 0 105 0 0 -350 c0 -298 -3 -360 -17 -413 -40 -147 -142 -238 -300 -267 -160 -29 -312 33 -395 161 -56 87 -61 126 -65 517 l-3 352 105 0 105 0 0 -364z m1175 342 c33 -8 71 -19 85 -25 14 -6 32 -14 40 -17 39 -15 125 -80 165 -125 44 -50 86 -135 104 -213 22 -94 7 -270 -26 -309 -7 -8 -13 -23 -13 -31 0 -9 -7 -21 -15 -28 -8 -7 -15 -17 -15 -22 0 -18 -114 -123 -163 -152 -108 -64 -161 -74 -388 -77 -115 -2 -210 -1 -211 1 -2 3 -2 234 0 513 l3 508 187 -4 c112 -3 211 -10 247 -19z m-5759 -244 c9 -48 -2 -443 -14 -473 -8 -24 -10 -23 -53 35 -64 87 -107 152 -113 172 -9 29 10 89 42 129 16 21 44 65 62 98 18 33 34 63 37 68 11 19 33 4 39 -29z m-821 -79 c89 -135 95 -157 60 -226 -14 -30 -33 -61 -40 -69 -8 -8 -25 -28 -39 -43 -14 -15 -26 -36 -26 -45 0 -18 -35 -46 -48 -38 -9 6 -7 500 2 515 5 7 12 11 16 9 5 -2 39 -48 75 -103z m1595 56 c0 -5 3 -23 6 -40 6 -29 5 -31 -24 -31 -38 0 -47 22 -21 54 20 26 39 34 39 17z m1424 -76 c72 -40 84 -41 165 -10 49 18 76 13 67 -11 -4 -9 -2 -22 2 -28 9 -12 0 -221 -10 -231 -3 -3 -38 -1 -78 6 -49 7 -79 8 -94 1 -101 -48 -163 -72 -186 -72 -92 0 -183 95 -185 194 -2 56 26 120 73 170 26 27 29 28 104 23 64 -4 87 -11 142 -42z m-1426 -277 c7 -7 12 -31 12 -55 0 -36 -3 -43 -19 -43 -11 0 -23 5 -26 10 -3 6 -15 10 -26 10 -29 0 -24 40 9 67 32 26 34 27 50 11z" filter="url(#pc9Glow)" /><path d="M10875 4341 c-39 -17 -83 -72 -90 -112 -15 -89 17 -163 87 -199 82 -42 176 -11 225 75 39 69 23 144 -45 209 -25 24 -41 29 -94 32 -35 2 -72 0 -83 -5z" filter="url(#pc9Glow)" /><path d="M2388 4334 c-8 -7 0 -306 8 -314 11 -11 186 4 229 20 50 18 70 55 70 132 0 116 -47 152 -207 160 -54 3 -99 4 -100 2z" filter="url(#pc9Glow)" /><path d="M7940 4321 c-65 -24 -94 -46 -137 -104 -64 -86 -75 -121 -70 -223 5 -108 21 -152 81 -220 65 -75 116 -96 224 -96 99 0 142 18 216 90 47 46 67 82 91 170 16 53 16 69 6 110 -7 26 -15 58 -18 72 -10 42 -65 118 -109 150 -94 67 -194 85 -284 51z m116 -121 c58 0 127 -47 149 -103 24 -59 24 -144 0 -182 -51 -82 -103 -117 -168 -114 -66 3 -109 26 -141 76 -57 88 -54 206 7 260 12 11 32 32 45 47 17 20 29 26 45 22 12 -3 40 -6 63 -6z" filter="url(#pc9Glow)" /><path d="M9839 4338 c0 -2 -1 -150 -2 -331 l-2 -327 92 0 c87 0 131 10 183 42 8 4 22 11 31 14 35 12 102 100 120 159 31 101 21 188 -34 291 -28 54 -109 108 -191 129 -47 11 -195 29 -197 23z m225 -176 c53 -37 85 -102 86 -173 0 -48 -5 -62 -31 -95 -88 -111 -154 -93 -159 43 -3 92 -1 184 5 209 4 17 35 42 55 43 3 0 23 -12 44 -27z" filter="url(#pc9Glow)" /><path d="M7870 2370 c0 -11 5 -20 10 -20 6 0 10 9 10 20 0 11 -4 20 -10 20 -5 0 -10 -9 -10 -20z" filter="url(#pc9Glow)" /></g>
</svg>